<?xml version="1.0" standalone="no"?>
<!DOCTYPE svg PUBLIC "-//W3C//DTD SVG 20010904//EN"
 "http://www.w3.org/TR/2001/REC-SVG-20010904/DTD/svg10.dtd">
<svg version="1.0" xmlns="http://www.w3.org/2000/svg"
 width="168.000000pt" height="288.000000pt" viewBox="0 0 168.000000 288.000000"
 preserveAspectRatio="xMidYMid meet">

<g transform="translate(0.000000,288.000000) scale(0.100000,-0.100000)"
fill="#000000" stroke="none">
<path d="M425 2544 c11 -8 60 -43 109 -77 177 -123 352 -329 438 -513 17 -38
34 -71 38 -74 12 -9 68 -204 86 -295 26 -137 24 -361 -4 -501 -49 -245 -155
-467 -312 -652 -50 -58 -227 -207 -312 -263 -72 -46 -36 -49 107 -7 80 23 239
102 272 134 12 12 24 19 27 16 3 -3 6 3 6 13 0 10 3 15 7 12 3 -4 11 3 18 16
6 12 17 21 23 19 7 -1 12 3 12 9 0 9 46 77 61 89 16 12 100 152 136 225 121
246 153 645 78 975 -4 14 -7 41 -9 60 -1 19 -12 53 -24 75 -32 60 -115 256
-115 271 0 8 -6 14 -13 14 -8 0 -17 12 -20 28 -4 15 -19 41 -34 57 -15 17 -38
46 -51 65 -13 19 -33 46 -46 59 -12 14 -19 29 -16 35 3 6 3 8 -1 4 -8 -7 -66
49 -66 63 0 30 -317 160 -387 159 -27 -1 -27 -1 -8 -16z"/>
</g>
</svg>
